<?xml version="1.0" standalone="no"?>
<!DOCTYPE svg PUBLIC "-//W3C//DTD SVG 20010904//EN"
 "http://www.w3.org/TR/2001/REC-SVG-20010904/DTD/svg10.dtd">
<svg version="1.0" xmlns="http://www.w3.org/2000/svg"
 width="512.000000pt" height="512.000000pt" viewBox="0 0 512.000000 512.000000"
 preserveAspectRatio="xMidYMid meet">
<metadata>
Created by potrace 1.14, written by Peter Selinger 2001-2017
</metadata>
<g transform="translate(0.000000,512.000000) scale(0.100000,-0.100000)"
fill="#000000" stroke="none">
<path d="M2369 5115 c-2 -1 -35 -6 -74 -9 -38 -3 -81 -8 -95 -11 -40 -6 -142
-25 -174 -31 -41 -7 -231 -59 -291 -79 -132 -44 -418 -177 -486 -226 -15 -10
-30 -19 -33 -19 -3 0 -45 -28 -93 -61 -636 -443 -1031 -1104 -1111 -1859 -3
-36 -6 -157 -6 -270 0 -183 4 -253 19 -355 5 -29 7 -40 25 -140 71 -398 300
-860 589 -1188 421 -479 1012 -783 1661 -854 87 -10 427 -10 515 0 880 95
1635 613 2029 1393 30 60 62 127 71 149 25 59 96 257 101 282 2 12 9 34 14 48
5 14 7 25 4 25 -4 0 -2 6 4 13 6 6 10 15 10 20 0 6 13 79 17 97 37 161 50 289
50 515 0 217 -11 339 -44 500 -6 28 -13 61 -15 75 -11 56 -50 190 -78 270
-189 534 -523 966 -990 1284 -54 36 -101 66 -105 66 -3 0 -14 6 -22 14 -20 18
-257 137 -331 166 -161 65 -415 137 -541 154 -25 4 -57 9 -70 11 -78 13 -136
17 -330 20 -120 2 -219 2 -220 0z"/>
</g>
</svg>
